<!DOCTYPE svg PUBLIC "-//W3C//DTD SVG 1.1//EN" "http://www.w3.org/Graphics/SVG/1.1/DTD/svg11.dtd">
<!-- Uploaded to: SVG Repo, www.svgrepo.com, Transformed by: SVG Repo Mixer Tools -->
<svg width="800px" height="800px" viewBox="-2.4 -2.4 28.80 28.80" fill="none" xmlns="http://www.w3.org/2000/svg" stroke="#000000" transform="matrix(1, 0, 0, 1, 0, 0)rotate(0)">
<g id="SVGRepo_bgCarrier" stroke-width="0">
<path transform="translate(-2.4, -2.4), scale(0.8999999999999999)" d="M16,29.382460184395313C20.48187880152578,29.6362339294768,25.344004139035242,29.188178819707993,28.288798381735486,25.7999896907752C31.348176312834113,22.279964115765807,31.569768492213253,17.229909275327714,30.50947525042475,12.688306957265166C29.456588415445857,8.178428838706441,26.993854174973787,3.834039414597691,22.73554658032253,2.013493408350639C18.65142707422669,0.26741769855509046,13.993947438130222,1.660124679208454,10.229873014546646,4.018207853766672C6.976081966798029,6.056613331392533,5.464413940933537,9.657209400988098,4.572928504721377,13.391845499812959C3.6662229008911766,17.190242356926824,3.0700835273907523,21.323376270328662,5.340570909533259,24.50061104032619C7.731135660499341,27.84587757051614,11.894932324617407,29.150022306458915,16,29.382460184395313" fill="#9862fe" strokewidth="0"/>
</g>
<g id="SVGRepo_tracerCarrier" stroke-linecap="round" stroke-linejoin="round"/>
<g id="SVGRepo_iconCarrier"> <g id="Interface / Bookmark"> <path id="Vector" d="M6 7.2002V16.6854C6 18.0464 6 18.7268 6.20412 19.1433C6.58245 19.9151 7.41157 20.3588 8.26367 20.2454C8.7234 20.1842 9.28964 19.8067 10.4221 19.0518L10.4248 19.0499C10.8737 18.7507 11.0981 18.6011 11.333 18.5181C11.7642 18.3656 12.2348 18.3656 12.666 18.5181C12.9013 18.6012 13.1266 18.7515 13.5773 19.0519C14.7098 19.8069 15.2767 20.1841 15.7364 20.2452C16.5885 20.3586 17.4176 19.9151 17.7959 19.1433C18 18.7269 18 18.0462 18 16.6854V7.19691C18 6.07899 18 5.5192 17.7822 5.0918C17.5905 4.71547 17.2837 4.40973 16.9074 4.21799C16.4796 4 15.9203 4 14.8002 4H9.2002C8.08009 4 7.51962 4 7.0918 4.21799C6.71547 4.40973 6.40973 4.71547 6.21799 5.0918C6 5.51962 6 6.08009 6 7.2002Z" stroke="#000000" stroke-width="2" stroke-linecap="round" stroke-linejoin="round"/> </g> </g>
</svg>