<!DOCTYPE svg PUBLIC "-//W3C//DTD SVG 1.1//EN" "http://www.w3.org/Graphics/SVG/1.1/DTD/svg11.dtd">
<!-- Uploaded to: SVG Repo, www.svgrepo.com, Transformed by: SVG Repo Mixer Tools -->
<svg width="800px" height="800px" viewBox="-11.84 -11.84 55.68 55.68" xmlns="http://www.w3.org/2000/svg" fill="#000000">
<g id="SVGRepo_bgCarrier" stroke-width="0">
<path transform="translate(-11.84, -11.84), scale(1.74)" d="M16,26.84873499100407C18.105567886168767,26.708730925302632,19.945001940204268,28.863923822252914,22.0257779384725,28.51265682023169C24.123644878390603,28.158504604309467,26.003917873164546,26.694098937905032,27.22721828096462,24.953407810243338C28.436948304024114,23.23202661509395,28.292635792071614,20.96374389036618,28.770799397213086,18.91485162515955C29.251113758252124,16.856743545375025,30.24562104235025,14.895294906696757,30.06598301625173,12.789531165657865C29.877447305833996,10.579466451013651,29.006526140007715,8.460088570841915,27.72451323844855,6.650012694737827C26.410870792806012,4.795279019443211,24.687896875604306,3.1956532163595197,22.61337563532484,2.2671839896778074C20.55836494771848,1.3474468730371043,18.20258075414453,0.9361081908364616,16.000000000000004,1.4026093284289054C13.894519118646127,1.8485449539366352,12.609605881416368,4.01126984747065,10.610838820159788,4.809291500484781C8.427599147863404,5.680965126683455,5.493150484712633,4.639455357026845,3.8022724737847895,6.27263689300497C2.1586834747550743,7.860143022130833,2.663782726198715,10.615298422509873,2.269418373166628,12.866084344093991C1.8917465178164794,15.021599893268146,0.891656060703099,17.2086774803303,1.5188064050155088,19.305237939435642C2.1424988079777476,21.390238517931138,4.308435416087201,22.540152607988464,5.670890822156762,24.237189700190985C7.028851630478496,25.928628444690816,7.472620554121201,28.808809025187184,9.575553328902581,29.340500973671702C11.830666886899198,29.910669329067527,13.679049162177098,27.00306036598859,16,26.84873499100407" fill="#9862fe" strokewidth="0"/>
</g>
<g id="SVGRepo_tracerCarrier" stroke-linecap="round" stroke-linejoin="round"/>
<g id="SVGRepo_iconCarrier"> <g fill="none" fill-rule="evenodd"> <path d="m0 0h32v32h-32z"/> <path d="m24 2c4.418278 0 8 3.581722 8 8v9c0 4.418278-3.581722 8-8 8h-14.65568992c-.8644422 0-1.70562318.280039-2.39757043.7981793l-3.74795444 2.8065233c-.88415838.6620708-2.13762479.4820332-2.79969558-.4021251-.25907013-.3459737-.39908963-.7665641-.39908963-1.1987852v-19.0037923c0-4.418278 3.581722-8 8-8zm0 2h-16c-3.23839694 0-5.87757176 2.56557489-5.99586153 5.77506174l-.00413847.22493826v19.0037923l3.74795444-2.8065234c.96378366-.7216954 2.12058137-1.1354383 3.31910214-1.1908624l.2772535-.0064065h14.65568992c3.2383969 0 5.8775718-2.5655749 5.9958615-5.7750617l.0041385-.2249383v-9c0-3.23839694-2.5655749-5.87757176-5.7750617-5.99586153zm-2.571997 8.0964585c.4991418.2363808.7121517.8326397.4757709 1.3317815-1.0147484 2.1427431-3.3743976 3.5719947-5.9072405 3.5719947-2.5295477 0-4.8788249-1.4193527-5.8988448-3.5543444-.23808431-.4983315-.0271123-1.0953145.4712193-1.3333988.4983315-.2380843 1.0953145-.0271123 1.3333988.4712192.6812794 1.4259781 2.3208063 2.416524 4.0942267 2.416524 1.7746853 0 3.4225233-.9981039 4.099688-2.4280053.2363808-.4991419.8326397-.7121518 1.3317816-.4757709z" fill="#000000" fill-rule="nonzero"/> </g> </g>
</svg>