<!DOCTYPE svg PUBLIC "-//W3C//DTD SVG 1.1//EN" "http://www.w3.org/Graphics/SVG/1.1/DTD/svg11.dtd">
<!-- Uploaded to: SVG Repo, www.svgrepo.com, Transformed by: SVG Repo Mixer Tools -->
<svg fill="#000000" width="203px" height="203px" viewBox="-16.32 -16.32 64.64 64.64" xmlns="http://www.w3.org/2000/svg" preserveAspectRatio="xMidYMid">
<g id="SVGRepo_bgCarrier" stroke-width="0">
<path transform="translate(-16.32, -16.32), scale(2.02)" d="M16,28.69988947255271C18.356370753453486,28.65731914448513,20.144831184722978,26.774049015209098,22.271982880540598,25.759395860903176C24.77260979135249,24.566594713816997,28.157878956250933,24.576249704750627,29.601891538470156,22.21177572816317C31.045685849626203,19.847659155835945,30.305197294907902,16.69334880058289,29.4096233360656,14.071987233625308C28.603208708899754,11.71159668205367,26.702638537191014,10.003392600473608,24.857520758818026,8.324914572381605C23.20248008565617,6.819347048149977,21.31150806742915,5.7746950407075905,19.273543165141792,4.851335816523472C16.91855754443938,3.784341142937121,14.531721692814415,1.8234596617139966,12.041383783076606,2.5181912663639405C9.551917846160572,3.2126796160422133,8.871592689770264,6.409601847473588,7.064462813986843,8.257312953397637C5.098382805882601,10.267543604105352,1.695856792064752,11.12255131580991,0.9693001175900573,13.83891161335665C0.24214167643585627,16.557521721790867,1.8346436175184349,19.429966984858787,3.461952145679012,21.725934596650895C4.929047571860184,23.79585773883941,7.363458109896054,24.755414846160363,9.580666497213205,25.988677904595086C11.652544253349113,27.141104673703076,13.629571563137311,28.742713767528393,16,28.69988947255271" fill="#9862fe" strokewidth="0"/>
</g>
<g id="SVGRepo_tracerCarrier" stroke-linecap="round" stroke-linejoin="round"/>
<g id="SVGRepo_iconCarrier"> <path d="M30.000,32.000 L23.000,32.000 C22.447,32.000 22.000,31.552 22.000,31.000 L22.000,1.000 C22.000,0.448 22.447,-0.000 23.000,-0.000 L30.000,-0.000 C30.553,-0.000 31.000,0.448 31.000,1.000 L31.000,31.000 C31.000,31.552 30.553,32.000 30.000,32.000 ZM29.000,2.000 L24.000,2.000 L24.000,30.000 L29.000,30.000 L29.000,2.000 ZM19.000,32.000 L12.000,32.000 C11.448,32.000 11.000,31.552 11.000,31.000 L11.000,17.000 C11.000,16.448 11.448,16.000 12.000,16.000 L19.000,16.000 C19.553,16.000 20.000,16.448 20.000,17.000 L20.000,31.000 C20.000,31.552 19.553,32.000 19.000,32.000 ZM18.000,18.000 L13.000,18.000 L13.000,30.000 L18.000,30.000 L18.000,18.000 ZM8.000,32.000 L1.000,32.000 C0.448,32.000 0.000,31.552 0.000,31.000 L0.000,11.000 C0.000,10.448 0.448,10.000 1.000,10.000 L8.000,10.000 C8.552,10.000 9.000,10.448 9.000,11.000 L9.000,31.000 C9.000,31.552 8.552,32.000 8.000,32.000 ZM7.000,12.000 L2.000,12.000 L2.000,30.000 L7.000,30.000 L7.000,12.000 Z"/> </g>
</svg>